<?xml version="1.0" encoding="utf-8"?>
<!-- Generator: Adobe Illustrator 21.1.0, SVG Export Plug-In . SVG Version: 6.00 Build 0)  -->
<svg version="1.1" id="图层_1" xmlns="http://www.w3.org/2000/svg" xmlns:xlink="http://www.w3.org/1999/xlink" x="0px" y="0px"
	 viewBox="0 0 32 32" style="enable-background:new 0 0 32 32;" xml:space="preserve">
<style type="text/css">
	.st0{fill:#DDDDDE;}
	.st1{fill:#0098CB;}
</style>
<title>Group 5</title>
<desc>Created with Sketch.</desc>
<path class="st0" d="M22.2,24.5h-19c-1,0-1.6-0.8-1.5-1.8c0.2-1,1.1-1.8,2.1-1.8h19c1,0,1.6,0.8,1.5,1.8
	C24.1,23.7,23.2,24.5,22.2,24.5"/>
<path class="st1" d="M5.3,9.3c-0.2,1-1.1,1.8-2.1,1.8c-1,0-1.6-0.8-1.5-1.8c0.2-1,1.1-1.8,2.1-1.8C4.8,7.5,5.4,8.3,5.3,9.3"/>
<path class="st1" d="M1.7,22.7c0.2-1,1.1-1.8,2.1-1.8c1,0,1.6,0.8,1.5,1.8c-0.2,1-1.1,1.8-2.1,1.8C2.2,24.5,1.5,23.7,1.7,22.7"/>
<path class="st0" d="M17.9,4.4h-5.3c-1,0-1.6-0.8-1.5-1.8c0.2-1,1.1-1.8,2.1-1.8h5.3c1,0,1.6,0.8,1.5,1.8
	C19.8,3.6,18.9,4.4,17.9,4.4"/>
<path class="st0" d="M27.2,11.1h-19c-1,0-1.6-0.8-1.5-1.8c0.2-1,1.1-1.8,2.1-1.8h19c1,0,1.6,0.8,1.5,1.8
	C29.2,10.3,28.2,11.1,27.2,11.1"/>
<path class="st0" d="M17.8,31.2h-5.3c-1,0-1.6-0.8-1.5-1.8c0.2-1,1.1-1.8,2.1-1.8h5.3c1,0,1.6,0.8,1.5,1.8
	C19.8,30.4,18.8,31.2,17.8,31.2"/>
<path class="st0" d="M31,16c-0.2,1-1.1,1.8-2.1,1.8"/>
<path class="st0" d="M28.9,17.8h-7.8c-1,0-1.6-0.8-1.5-1.8c0.2-1,1.1-1.8,2.1-1.8h7.8c1,0,1.6,0.8,1.5,1.8"/>
<path class="st0" d="M9.3,17.8H1.5c-1,0-1.6-0.8-1.5-1.8c0.2-1,1.1-1.8,2.1-1.8H10c1,0,1.6,0.8,1.5,1.8C11.3,17,10.3,17.8,9.3,17.8"
	/>
<path class="st1" d="M20,2.6c-0.2,1-1.1,1.8-2.1,1.8c-1,0-1.6-0.8-1.5-1.8c0.2-1,1.1-1.8,2.1-1.8C19.5,0.8,20.2,1.6,20,2.6"/>
<path class="st1" d="M29.3,9.3c-0.2,1-1.1,1.8-2.1,1.8c-1,0-1.6-0.8-1.5-1.8c0.2-1,1.1-1.8,2.1-1.8C28.9,7.5,29.5,8.3,29.3,9.3"/>
<path class="st1" d="M17.3,16c-0.2,1-1.1,1.8-2.1,1.8c-1,0-1.6-0.8-1.5-1.8c0.2-1,1.1-1.8,2.1-1.8C16.8,14.2,17.5,15,17.3,16"/>
<path class="st1" d="M11.1,29.4c0.2-1,1.1-1.8,2.1-1.8c1,0,1.6,0.8,1.5,1.8c-0.2,1-1.1,1.8-2.1,1.8C11.5,31.2,10.9,30.4,11.1,29.4"
	/>
<path class="st1" d="M25.8,22.7c0.2-1,1.1-1.8,2.1-1.8c1,0,1.6,0.8,1.5,1.8c-0.2,1-1.1,1.8-2.1,1.8C26.3,24.5,25.6,23.7,25.8,22.7"
	/>
</svg>
